<?xml version="1.0" standalone="no"?>
<!DOCTYPE svg PUBLIC "-//W3C//DTD SVG 20010904//EN"
 "http://www.w3.org/TR/2001/REC-SVG-20010904/DTD/svg10.dtd">
<svg version="1.0" xmlns="http://www.w3.org/2000/svg"
 width="1024.000000pt" height="703.000000pt" viewBox="0 0 1024.000000 703.000000"
 preserveAspectRatio="xMidYMid meet">

<g transform="translate(0.000000,703.000000) scale(0.100000,-0.100000)"
fill="#000000" stroke="none">
<path d="M8520 5813 c-521 -40 -737 -50 -1050 -52 -348 -1 -398 -3 -770 -21
-518 -27 -1186 -103 -1312 -150 -69 -25 -87 -44 -70 -71 16 -24 15 -29 -3 -29
-11 0 -15 -11 -15 -40 0 -36 3 -42 37 -57 20 -10 44 -31 53 -48 12 -21 24 -30
42 -30 32 -1 53 -22 78 -77 24 -52 25 -66 5 -70 -24 -5 103 -252 130 -255 11
-1 27 -3 35 -4 34 -5 49 3 58 30 9 25 3 52 -34 168 -45 139 -61 251 -43 300
26 69 263 143 579 179 98 12 267 17 620 20 267 2 526 6 575 9 204 11 493 36
608 52 140 19 557 24 817 9 194 -11 248 1 318 69 76 75 74 75 -297 73 -174 -1
-336 -3 -361 -5z"/>
<path d="M9355 5747 c0 -58 4 -79 22 -107 29 -44 28 -53 -2 -117 -16 -35 -61
-91 -134 -167 -61 -63 -115 -126 -121 -140 -5 -14 -13 -26 -17 -25 -5 1 -17 1
-28 0 -19 -2 -19 -3 2 -11 l22 -9 -19 -57 c-32 -93 -91 -183 -214 -329 -76
-89 -75 -88 -211 -260 -176 -223 -178 -224 -294 -364 -161 -193 -219 -261
-274 -319 -42 -45 -48 -57 -44 -81 4 -16 2 -52 -2 -81 -6 -40 -17 -60 -47 -91
-38 -39 -39 -48 -1 -61 17 -7 19 -76 2 -111 -9 -20 -78 -100 -153 -179 -74
-79 -208 -219 -296 -313 -250 -265 -418 -438 -716 -735 -290 -290 -427 -420
-435 -412 -3 3 -5 1 -5 -5 0 -5 -7 -10 -15 -10 -15 0 -12 33 7 70 31 61 -16
15 -288 -278 -220 -237 -240 -260 -279 -332 -21 -37 -61 -101 -89 -142 l-51
-75 3 -135 c2 -78 8 -141 14 -149 6 -7 23 -12 37 -10 20 2 43 30 118 143 51
77 101 156 110 177 32 65 1622 1789 2130 2309 l123 126 0 60 c0 80 -17 97 -89
87 -28 -4 -51 -4 -51 -1 0 11 762 981 901 1147 169 202 229 300 229 372 0 40
4 46 56 88 91 72 202 198 236 268 22 43 32 81 34 120 2 31 6 67 10 79 5 17 -5
34 -46 78 -48 49 -57 55 -94 55 l-41 0 0 -73z"/>
<path d="M2890 5792 c-8 -4 -26 -15 -40 -24 -32 -21 -383 -161 -920 -365 -94
-36 -130 -57 -118 -68 13 -13 137 -37 193 -36 54 0 75 7 215 74 176 85 329
147 525 212 155 52 215 56 332 26 39 -10 83 -16 98 -13 29 5 125 89 125 109 0
20 -35 30 -134 38 -71 6 -93 11 -105 26 -12 15 -33 21 -86 24 -38 3 -77 2 -85
-3z"/>
<path d="M4419 5733 c-30 -35 -13 -147 32 -219 l31 -47 -29 -22 c-24 -19 -28
-31 -31 -76 -3 -51 -1 -56 41 -101 34 -37 41 -50 31 -60 -6 -7 -59 -84 -118
-171 -58 -86 -174 -248 -258 -358 -84 -110 -205 -270 -270 -354 -220 -292
-369 -483 -383 -495 -9 -8 -8 4 6 41 20 51 69 225 69 242 0 23 -58 -65 -115
-177 -51 -98 -66 -138 -70 -181 -5 -56 -28 -152 -46 -190 -16 -36 -80 -218
-77 -221 4 -4 113 238 113 251 0 16 73 77 130 110 93 54 203 179 497 570 385
511 531 698 617 790 20 22 54 66 75 98 43 64 52 72 62 56 5 -8 9 -7 15 2 12
20 43 0 124 -80 68 -67 70 -68 104 -58 26 6 62 36 126 104 49 52 95 104 101
115 6 11 21 25 34 31 34 17 35 32 3 46 -39 18 -272 101 -302 107 -57 12 -263
129 -341 193 -83 69 -143 88 -171 54z"/>
<path d="M4985 5720 c-49 -10 -108 -19 -130 -20 l-40 0 24 -19 c66 -51 311
-160 359 -161 25 0 11 17 -30 36 l-43 19 -3 68 c-2 42 2 74 9 83 16 19 -30 18
-146 -6z"/>
<path d="M3430 5678 c-6 -24 -15 -56 -21 -72 -7 -23 -6 -33 7 -47 8 -9 16 -30
16 -46 1 -28 -45 -143 -82 -206 -14 -24 -60 -227 -60 -266 0 -3 44 -4 98 -3
115 4 132 -5 132 -68 0 -80 -69 -440 -116 -605 -15 -49 -35 -120 -45 -157 -20
-70 -25 -128 -10 -128 10 0 228 276 293 370 24 36 67 97 96 136 28 39 55 84
58 102 8 40 -22 173 -44 198 -10 10 -31 36 -46 57 -30 39 -130 120 -172 139
-16 8 -24 19 -24 37 0 56 31 195 69 317 47 144 49 169 21 224 -25 49 -45 60
-109 60 l-50 0 -11 -42z"/>
<path d="M5322 5239 c-25 -66 -74 -163 -114 -230 -38 -62 -45 -83 -46 -127 -1
-29 -4 -58 -8 -63 -3 -5 -21 -51 -39 -102 -59 -163 -83 -225 -99 -259 -11 -25
-217 -490 -301 -683 -40 -91 -172 -413 -229 -560 -36 -93 -75 -190 -86 -215
-10 -25 -45 -107 -76 -182 -65 -158 -97 -201 -192 -257 -88 -52 -133 -101
-228 -246 -43 -66 -83 -125 -89 -131 -38 -43 -253 -373 -275 -423 -6 -13 -29
-49 -51 -81 -50 -71 -75 -75 -71 -10 1 24 7 49 13 56 6 7 9 21 7 31 -2 13 -17
0 -53 -47 -27 -36 -76 -98 -109 -138 -52 -63 -61 -81 -72 -140 -11 -57 -11
-70 2 -90 13 -20 23 -22 91 -22 73 0 77 1 108 34 97 103 450 619 646 943 l103
173 52 0 c89 0 73 -22 204 285 37 88 109 266 160 395 197 502 405 976 555
1265 110 213 138 261 250 420 47 66 85 127 85 135 0 8 -29 78 -65 155 -58 126
-65 137 -73 114z"/>
<path d="M1810 5213 c-59 -11 -66 -73 -15 -123 19 -19 35 -32 35 -29 0 13 20
124 25 140 7 20 3 21 -45 12z"/>
<path d="M7390 5145 c-30 -6 -72 -17 -93 -24 -21 -7 -44 -14 -52 -15 -11 -2
-147 -57 -254 -104 -35 -15 -94 -35 -283 -98 -182 -59 -240 -123 -245 -269 -4
-112 -1 -111 -204 -110 l-164 0 -120 81 c-183 123 -202 132 -252 122 -24 -5
-43 -12 -43 -16 0 -4 22 -43 48 -87 55 -91 64 -95 156 -72 l55 15 88 -52 c49
-29 122 -76 163 -106 l75 -55 80 1 c44 1 119 1 166 2 66 1 91 5 103 17 19 20
19 25 1 194 -14 136 -13 151 8 151 35 0 753 225 775 243 12 10 102 179 102
192 0 8 -49 4 -110 -10z"/>
<path d="M7744 5150 c-55 -6 -119 -42 -156 -89 -27 -35 -10 -37 66 -11 33 11
61 18 64 16 2 -3 -42 -88 -98 -190 -171 -313 -270 -537 -311 -701 -12 -49 -33
-104 -45 -120 -29 -39 -77 -183 -102 -306 -21 -103 -11 -85 -202 -359 -103
-149 -207 -306 -222 -335 -9 -16 -19 -62 -23 -101 -5 -58 -4 -73 9 -83 9 -8
16 -18 16 -23 0 -5 -46 -70 -102 -145 -135 -179 -133 -174 -222 -353 -43 -85
-82 -162 -87 -170 -9 -15 -96 -192 -159 -323 -71 -151 -25 -97 340 388 99 132
204 269 234 305 77 96 179 240 199 282 13 27 17 61 16 135 -1 129 10 153 194
447 74 117 122 227 156 356 17 63 39 138 50 165 11 28 38 109 61 180 71 221
126 354 250 600 66 130 122 251 125 268 3 18 5 64 3 102 l-3 70 -51 -5z"/>
<path d="M2025 5140 c-24 -9 -70 -58 -79 -83 -5 -17 -1 -18 36 -15 25 2 42 -1
41 -7 -1 -5 -13 -91 -27 -190 -14 -99 -36 -211 -47 -250 -13 -39 -22 -93 -21
-122 1 -29 -3 -53 -8 -53 -20 0 -38 -33 -45 -82 -12 -98 -268 -1166 -375
-1568 -33 -124 -76 -284 -95 -355 -18 -72 -45 -167 -59 -210 -26 -83 -96 -365
-90 -365 2 0 10 12 19 28 l15 27 -6 -40 c-4 -22 -12 -71 -20 -110 -7 -38 -11
-71 -10 -73 2 -1 11 10 21 25 10 15 26 36 36 47 30 32 93 160 169 346 39 96
108 249 152 340 176 362 197 406 202 430 1 3 7 15 14 28 7 12 10 22 7 22 -3 0
1 10 10 23 8 13 13 26 10 29 -3 3 1 11 10 18 8 7 15 18 15 24 0 6 19 32 43 57
86 94 93 115 102 327 5 94 0 112 -26 112 -22 0 -69 -21 -69 -31 0 -4 -7 -9
-14 -12 -10 -4 -13 -1 -9 9 3 10 0 12 -10 9 -52 -21 -19 404 63 798 5 27 12
52 15 56 14 24 104 455 130 628 8 51 -13 153 -34 170 -23 17 -44 21 -66 13z"/>
<path d="M2560 3691 c0 -6 -20 -53 -45 -106 -67 -141 -95 -222 -101 -295 l-5
-65 41 75 40 75 -5 -45 c-20 -171 -25 -240 -25 -350 0 -69 5 -154 10 -190 7
-43 6 -170 -1 -381 -12 -324 -9 -409 16 -409 7 0 35 35 62 78 76 124 151 230
233 332 42 52 80 103 83 113 4 9 11 17 17 17 5 0 10 7 10 15 0 8 4 15 10 15 5
0 18 19 29 43 11 23 31 59 45 80 14 20 28 49 30 62 3 14 8 30 12 36 4 8 3 9
-4 5 -7 -4 -12 -3 -12 2 0 5 -35 3 -82 -4 -131 -21 -172 -19 -207 14 -49 44
-61 112 -71 397 -9 256 -14 291 -49 349 -16 26 -19 43 -15 83 4 32 2 53 -5 57
-6 4 -11 3 -11 -3z"/>
<path d="M2276 3449 c-15 -35 -36 -121 -57 -239 -17 -102 -36 -197 -41 -211
-9 -28 -32 -39 -79 -39 -21 0 -28 -6 -34 -27 -30 -121 -193 -490 -262 -594
-72 -109 -211 -383 -252 -499 -7 -19 -19 -47 -27 -62 -14 -25 -13 -27 2 -21
14 5 15 3 5 -16 -7 -12 -19 -25 -26 -27 -8 -3 -23 -30 -34 -60 -36 -94 -78
-168 -110 -191 -25 -19 -43 -23 -102 -23 -52 0 -77 4 -90 16 -16 15 -18 13
-28 -23 -14 -50 -14 -86 1 -101 7 -7 44 -12 94 -12 76 0 83 -2 98 -25 15 -23
22 -25 94 -25 112 1 124 13 207 215 159 382 249 557 391 754 l21 29 67 -23
c37 -13 89 -35 115 -49 l49 -25 6 87 c18 256 27 636 17 699 -21 138 -22 184
-6 357 9 98 14 180 11 183 -3 3 -16 -19 -30 -48z"/>
<path d="M3663 2991 c-12 -16 -36 -31 -52 -34 -45 -9 -104 -92 -179 -247 -55
-115 -102 -229 -102 -249 0 -2 16 10 35 29 l34 33 -20 -64 c-59 -195 -100
-408 -88 -466 3 -17 0 -70 -8 -118 -8 -48 -11 -90 -8 -93 8 -9 31 18 58 68 38
71 97 181 125 230 92 166 207 403 237 490 8 25 18 52 22 60 9 21 11 34 19 122
6 63 3 87 -11 125 -10 27 -24 52 -32 56 -8 5 -12 16 -9 25 2 9 7 27 11 40 9
30 -5 27 -32 -7z"/>
<path d="M3234 2708 c-182 -244 -615 -770 -676 -824 -20 -18 -41 -41 -47 -53
-7 -11 -21 -21 -31 -21 -18 0 -20 -7 -20 -74 0 -90 8 -99 99 -104 69 -4 118 8
127 31 3 8 45 55 95 104 l89 91 91 -35 c49 -20 91 -34 93 -32 1 2 15 63 30
134 67 313 158 675 203 798 13 38 23 71 20 73 -2 2 -35 -37 -73 -88z"/>
</g>
</svg>
